<svg width="1819" height="1638" viewBox="0 0 1819 1638" fill="none" xmlns="http://www.w3.org/2000/svg">
<path fill-rule="evenodd" clip-rule="evenodd" d="M1017.73 2.18282C1164.68 21.9296 1226.8 187.309 1355.29 255.478C1493.3 328.693 1707.96 288.403 1791.55 412.717C1873.6 534.732 1745.88 688.164 1742.54 831.387C1738.57 1002.07 1891.78 1203.08 1770.13 1332.53C1648.64 1461.82 1402.86 1330.98 1225.06 1382.07C1041.77 1434.73 914.471 1681.65 730.422 1631.26C546.023 1580.77 585.578 1311.48 465.254 1174.03C352.227 1044.91 127.67 1014.77 57.3469 862.375C-17.4942 700.186 -28.9921 488.67 82.9098 345.45C194.974 202.022 430.965 220.974 609.801 155.305C749.02 104.183 869.307 -17.7608 1017.73 2.18282Z" fill="#C9C9C9"/>
</svg>
