<svg width="89" height="104" viewBox="0 0 89 104" fill="none" xmlns="http://www.w3.org/2000/svg">
<path d="M80.647 51.7119V21.8849C80.647 21.1257 80.3442 20.3976 79.8053 19.8607L64.7221 4.83849C64.1832 4.30159 63.4522 4 62.69 4H6.87426C5.28685 4 4 5.28168 4 6.86271V96.561C4 98.1422 5.28685 99.4237 6.87426 99.4237H37.5331" stroke="white" stroke-width="8" stroke-linecap="round" stroke-linejoin="round"/>
<path d="M23.1621 42.1695H61.4856M23.1621 23.0847H42.3239M23.1621 61.2542H37.5334" stroke="white" stroke-width="8" stroke-linecap="round" stroke-linejoin="round"/>
<path d="M70.8467 75.2788L75.6372 70.5077C77.7349 68.4183 81.1361 68.4183 83.2338 70.5077C85.3316 72.597 85.3316 75.9845 83.2338 78.0738L78.4434 82.845M70.8467 75.2788L56.518 89.5499C55.8 90.2651 55.3286 91.1893 55.1724 92.1884L54.0098 99.6143L61.4651 98.4568C62.4687 98.3008 63.3962 97.8313 64.1142 97.1161L78.4434 82.845M70.8467 75.2788L78.4434 82.845" stroke="white" stroke-width="8" stroke-linecap="round" stroke-linejoin="round"/>
<path d="M61.4854 4V20.222C61.4854 21.8031 62.7721 23.0847 64.3596 23.0847H80.6471" stroke="white" stroke-width="8" stroke-linecap="round" stroke-linejoin="round"/>
</svg>
