<svg width="346" height="417" viewBox="0 0 346 417" fill="none" xmlns="http://www.w3.org/2000/svg">
<path d="M100.568 257.982L65.5649 224.51C53.2379 212.722 33.6142 213.618 22.4045 226.482C12.2737 238.107 12.5719 255.551 23.094 266.82L137.195 389.026C144.456 396.802 154.58 401.213 165.195 401.213C186.03 401.213 220.283 401.213 254.189 401.213C300.276 401.213 331 362.651 331 324.089C331 324.089 331 191.877 331 158.823" stroke="white" stroke-width="29.97" stroke-linecap="round" stroke-linejoin="round"/>
<path d="M273.393 169.84C273.393 169.84 273.393 167.427 273.393 158.822C273.393 114.751 331.001 114.751 331.001 158.822" stroke="white" stroke-width="29.97" stroke-linecap="round" stroke-linejoin="round"/>
<path d="M215.784 169.84C215.784 169.84 215.784 153.998 215.784 136.787C215.784 92.716 273.392 92.716 273.392 136.787C273.392 141.09 273.392 154.52 273.392 158.822C273.392 167.428 273.392 169.84 273.392 169.84" stroke="white" stroke-width="29.97" stroke-linecap="round" stroke-linejoin="round"/>
<path d="M158.177 169.842C158.177 169.842 158.177 143.152 158.177 121.639C158.177 77.5678 215.785 77.5678 215.785 121.639C215.785 121.639 215.785 132.486 215.785 136.788C215.785 153.999 215.785 169.842 215.785 169.842" stroke="white" stroke-width="29.97" stroke-linecap="round" stroke-linejoin="round"/>
<path d="M100.568 257.982V44.5136C100.568 28.5406 113.464 15.592 129.372 15.592C145.28 15.592 158.176 28.5211 158.176 44.4942C158.176 67.4519 158.176 99.3019 158.176 121.638C158.176 143.151 158.176 169.84 158.176 169.84" stroke="white" stroke-width="29.97" stroke-linecap="round" stroke-linejoin="round"/>
</svg>
