<svg width="150" height="127" viewBox="0 0 150 127" fill="none" xmlns="http://www.w3.org/2000/svg">
<path d="M52 120.796H36.6667C19.7299 120.796 6 108.928 6 94.2887V52.5894C6 43.3202 11.6013 34.7242 20.7721 29.92L59.1054 9.83838C68.8751 4.72054 81.1249 4.72054 90.8945 9.83838L129.228 29.92C138.399 34.7242 144 43.3202 144 52.5894V94.2887C144 108.928 130.27 120.796 113.333 120.796H98M52 120.796V94.2887C52 83.3086 62.2971 74.4079 75 74.4079C87.7029 74.4079 98 83.3086 98 94.2887V120.796M52 120.796H98" stroke="white" stroke-width="10.94" stroke-linecap="round" stroke-linejoin="round"/>
</svg>
